<?xml version="1.0" ?>
<!-- Uploaded to: SVG Repo, www.svgrepo.com, Generator: SVG Repo Mixer Tools -->
<svg width="800px" height="800px" viewBox="0 0 512 512" baseProfile="tiny" overflow="visible" version="1.1" xml:space="preserve" xmlns="http://www.w3.org/2000/svg" xmlns:xlink="http://www.w3.org/1999/xlink">
<g id="Layer_1"/>
<g id="Layer_2"/>
<g id="Layer_3">
<g>
<path d="M154.988,250.136c-8.762,38.243,10.192,75.179,42.335,82.499s65.302-17.749,74.064-55.992    c3.598-15.703,2.522-31.184-2.222-44.486c-8.976-25.171-10.196-50.992-4.591-75.456l3.587-15.656    c0.617-2.694-1.069-5.378-3.764-5.992l-41.465-9.442c-2.69-0.613-5.368,1.069-5.984,3.759l-3.59,15.669    c-5.605,24.464-17.949,47.196-36.996,65.986C166.297,220.953,158.585,234.433,154.988,250.136z" fill="#D97C41"/>
<path d="M269.165,232.157c-8.976-25.171-10.196-50.992-4.591-75.456l3.587-15.656    c0.617-2.694-1.068-5.378-3.764-5.992l-41.464-9.442c-2.462-0.561-4.894,0.812-5.765,3.108l27.815,6.334    c2.695,0.614,4.381,3.298,3.764,5.992l-3.587,15.656c-5.605,24.464-4.385,50.285,4.591,75.456    c4.743,13.301,5.819,28.783,2.221,44.486c-6.834,29.829-28.511,51.64-52.972,56.321c31.611,6.091,63.777-18.743,72.386-56.321    C274.984,260.94,273.908,245.458,269.165,232.157z" fill="#C76D33"/>
<path d="M241.822,66.572l-13.792,60.199l31.281,7.123l13.792-60.199c8.77-0.072,16.682-6.157,18.734-15.111    c2.395-10.452-4.102-20.846-14.511-23.216c-4.243-0.966-8.481-0.449-12.175,1.21c-2.606-3.093-6.198-5.394-10.441-6.36    c-10.409-2.37-20.788,4.181-23.182,14.633C229.476,53.805,233.953,62.711,241.822,66.572z" fill="#F2C7AE"/>
<path d="M279.48,226.744c-28.962,0-55.799,8.473-77.821,22.903c-15.032,9.85-33.603,12.468-50.929,7.784    c-38.722-10.468-81.866-0.033-111.762,31.317c-41.949,43.989-41.966,114.216-0.042,158.229    c22.265,23.373,51.887,35.104,81.56,35.263v0.028l1.189-0.024c1.132-0.006,2.263-0.029,3.395-0.068l146.657-2.949l-0.003-0.021    c2.569,0.135,5.151,0.229,7.757,0.229c74.847,0,135.522-56.566,135.522-126.345S354.327,226.744,279.48,226.744z" fill="#AF602D"/>
<g>
<path d="M140.73,257.431c7.207,1.948,14.627,2.614,21.92,2.04c-4-0.312-7.992-0.979-11.92-2.04     c-11.315-3.059-23.006-4.319-34.635-3.808C124.392,253.988,132.657,255.249,140.73,257.431z" fill="#A05423"/>
<path d="M279.48,226.744c-1.694,0-3.38,0.035-5.059,0.092c72.557,2.426,130.581,58.017,130.581,126.252     c0,68.15-57.879,123.687-130.309,126.243c1.589,0.059,3.182,0.102,4.787,0.102c74.847,0,135.522-56.566,135.522-126.345     C415.002,283.311,354.327,226.744,279.48,226.744z" fill="#A05423"/>
<path d="M261.723,479.205l0.003,0.021l-145.129,2.918c1.296,0.051,2.593,0.088,3.889,0.095v0.028l1.189-0.024     c1.132-0.006,2.263-0.029,3.395-0.068l140.184-2.819C264.074,479.316,262.897,479.267,261.723,479.205z" fill="#A05423"/>
</g>
<path d="M273.721,243.996c-29.881,25.243-36.843,66.213-15.55,91.509s62.777,25.339,92.658,0.096    c12.269-10.365,20.673-23.381,24.844-36.875c7.892-25.535,22.367-46.897,41.482-63.045l12.233-10.335    c2.107-1.78,2.375-4.929,0.599-7.039l-27.487-32.656c-1.781-2.115-4.94-2.384-7.052-0.6l-12.22,10.323    c-19.115,16.148-42.576,26.835-69.032,30.316C300.216,227.53,285.99,233.631,273.721,243.996z" fill="#D97C41"/>
<path d="M429.987,218.307l-27.487-32.656c-1.781-2.115-4.94-2.384-7.052-0.6l-7.52,6.353l22.645,26.903    c1.776,2.11,1.508,5.26-0.599,7.04l-12.233,10.335c-19.115,16.148-33.59,37.51-41.482,63.045    c-4.171,13.494-12.574,26.51-24.844,36.875c-12.031,10.164-25.942,16.221-39.66,18.188c19.325,2.918,41.261-3.139,59.075-18.188    c12.269-10.365,20.673-23.381,24.844-36.875c7.892-25.535,22.367-46.897,41.482-63.045l12.233-10.335    C431.495,223.566,431.763,220.417,429.987,218.307z" fill="#C76D33"/>
<path d="M452.911,149.927l-47.035,39.735l20.722,24.618l47.035-39.735c7.047,5.25,17.008,5.177,24.004-0.733    c8.166-6.899,9.197-19.132,2.301-27.324c-2.811-3.339-6.505-5.491-10.448-6.401c-0.23-4.047-1.723-8.058-4.534-11.398    c-6.895-8.192-19.105-9.24-27.271-2.341C450.69,132.259,448.936,142.082,452.911,149.927z" fill="#F2C7AE"/>
<g>
<path d="M255.151,36.578c2.591-1.163,5.45-1.75,8.39-1.672c-2.403-2.241-5.398-3.906-8.831-4.688     c-3.179-0.724-6.352-0.607-9.299,0.19C249.346,31.46,252.691,33.658,255.151,36.578z" fill="#EFB899"/>
<path d="M277.326,35.368c-3.188-0.726-6.373-0.614-9.327,0.19c10.007,2.661,16.179,12.806,13.837,23.027     c-2.051,8.954-9.964,15.039-18.734,15.111l-13.296,58.034l9.504,2.164l13.792-60.199c8.77-0.072,16.682-6.157,18.734-15.111     C294.232,48.133,287.735,37.739,277.326,35.368z" fill="#EFB899"/>
</g>
<g>
<path d="M463.633,174.546l-41.191,34.798l4.156,4.937l43.375-36.643     C467.723,177.01,465.566,175.986,463.633,174.546z" fill="#EFB899"/>
<path d="M499.939,146.489c-2.811-3.339-6.505-5.491-10.448-6.401c-0.23-4.047-1.723-8.058-4.534-11.398     c-4.996-5.936-12.779-8.099-19.796-6.227c3.696,0.99,7.141,3.073,9.796,6.227c2.811,3.339,4.304,7.35,4.534,11.398     c3.943,0.911,7.637,3.062,10.448,6.401c6.895,8.192,5.865,20.425-2.302,27.324c-2.237,1.89-4.779,3.176-7.43,3.889     c5.893,1.566,12.42,0.344,17.43-3.889C505.804,166.914,506.834,154.68,499.939,146.489z" fill="#EFB899"/>
</g>
</g>
</g>
<g id="Layer_4"/>
<g id="Layer_5"/>
<g id="Layer_6"/>
<g id="Layer_7"/>
<g id="Layer_8"/>
<g id="Layer_9"/>
<g id="Layer_10"/>
<g id="Layer_11"/>
<g id="Layer_12"/>
<g id="Layer_13"/>
<g id="Layer_14"/>
<g id="Layer_15"/>
<g id="Layer_16"/>
<g id="Layer_17"/>
<g id="Layer_18"/>
<g id="Layer_19"/>
<g id="Layer_20"/>
<g id="Layer_21"/>
<g id="Layer_22"/>
<g id="Layer_23"/>
<g id="Layer_24"/>
<g id="Layer_25"/>
<g id="Layer_26"/>
<g id="Layer_27"/>
<g id="Layer_28"/>
<g id="Layer_29"/>
<g id="Layer_30"/>
<g id="Layer_31"/>
<g id="Layer_32"/>
<g id="Layer_33"/>
<g id="Layer_34"/>
<g id="Layer_35"/>
<g id="Layer_36"/>
<g id="Layer_37"/>
<g id="Layer_38"/>
<g id="Layer_39"/>
<g id="Layer_40"/>
<g id="Layer_41"/>
<g id="Layer_42"/>
<g id="Layer_43"/>
<g id="Layer_44"/>
<g id="Layer_45"/>
<g id="Layer_46"/>
<g id="Layer_47"/>
<g id="Layer_48"/>
<g id="Layer_49"/>
<g id="Layer_50">
<g>
<g>
<g>
<path d="M153.571,265.621c-0.309,0-0.622-0.019-0.937-0.059c-4.11-0.512-7.028-4.259-6.515-8.37      c0.352-2.825,0.874-5.76,1.551-8.724c3.812-16.636,11.907-31.431,23.413-42.787c17.471-17.223,29.558-38.772,34.959-62.321      l3.59-15.668c1.544-6.706,8.251-10.92,14.949-9.4l31.364,7.147c0.087,0.017,0.174,0.035,0.261,0.054l9.85,2.24      c6.738,1.554,10.949,8.277,9.407,14.992l-3.59,15.65c-5.089,22.224-4.154,44.635,2.782,66.606      c1.247,3.95-0.945,8.163-4.895,9.41c-3.949,1.247-8.163-0.945-9.41-4.895c-7.641-24.207-8.713-49.96-3.098-74.474l3.032-13.219      l-7.222-1.642c-0.121-0.023-0.24-0.048-0.356-0.076l-29.01-6.611l-3.033,13.237c-6.041,26.338-19.542,50.421-39.046,69.648      c-9.468,9.346-16.152,21.607-19.325,35.455c-0.565,2.471-0.999,4.905-1.289,7.232      C160.532,262.843,157.3,265.621,153.571,265.621z M256.314,125.526c0.009,0.002,0.018,0.004,0.025,0.006      C256.332,125.531,256.323,125.529,256.314,125.526z M254.56,125.307c0.002,0,0.003,0,0.005,0      C254.563,125.307,254.562,125.307,254.56,125.307z M254.544,125.307c0.004,0,0.007,0,0.011,0      C254.552,125.307,254.548,125.307,254.544,125.307z"/>
</g>
<g>
<path d="M255.547,140.411c-0.916,0-1.845-0.102-2.775-0.313l-21.53-4.902c-3.259-0.742-6.032-2.71-7.81-5.539      c-1.777-2.83-2.345-6.183-1.599-9.441l11.51-50.237c-7.856-6.439-11.427-16.781-9.131-26.802      c3.313-14.46,17.739-23.552,32.158-20.271c3.913,0.891,7.594,2.663,10.719,5.15c3.897-0.887,7.984-0.89,11.896,0      c6.975,1.588,12.912,5.802,16.721,11.866c3.825,6.091,5.046,13.314,3.436,20.339c-2.295,10.02-10.017,17.788-19.895,20.182      l-11.515,50.261C266.407,136.483,261.243,140.411,255.547,140.411z M237.013,121.125l16.655,3.793l11.333-49.467      c1.108-4.839,5.036-8.545,10.006-9.44c4.707-0.847,8.441-4.42,9.513-9.102c0.714-3.116,0.175-6.316-1.518-9.01      c-1.675-2.667-4.285-4.521-7.348-5.218c-1.925-0.439-3.861-0.396-5.751,0.129c-4.129,1.146-8.522,0.146-11.749-2.68      c-1.47-1.287-3.191-2.162-5.116-2.6c-6.365-1.448-12.739,2.586-14.207,8.994c-1.071,4.675,0.732,9.501,4.595,12.295      c4.096,2.963,6.025,8.008,4.915,12.853l0,0L237.013,121.125z M241.032,69.999h0.01H241.032z"/>
</g>
</g>
<g>
<path d="M120.482,489.765c-0.244,0-0.486-0.012-0.727-0.035c-32.883-0.349-63.497-13.679-86.266-37.582     c-21.611-22.688-33.509-52.624-33.502-84.294c0.007-31.672,11.92-61.603,33.545-84.279     c30.681-32.169,76.336-44.96,119.148-33.385c0.984,0.262,1.742,0.447,2.429,0.591c14.793,3.298,30.228,0.593,42.434-7.405     c20.483-13.425,44.466-21.59,69.354-23.612c4.072-0.341,8.31-0.515,12.578-0.515c7.796,0,15.609,0.59,23.227,1.753     c1.69,0.208,3.3,0.989,4.525,2.275c2.857,3,2.741,7.747-0.259,10.604c-1.444,1.375-3.293,2.061-5.14,2.069     c-0.002,0.002-0.006,0-0.01,0c-0.407-0.001-0.784-0.027-1.176-0.088c-6.935-1.07-14.057-1.612-21.167-1.612     c-3.852,0-7.668,0.156-11.344,0.464c-22.414,1.821-43.974,9.155-62.366,21.209c-15.576,10.205-35.199,13.674-53.835,9.518     c-0.867-0.182-1.86-0.423-3.135-0.762c-37.53-10.149-77.525,1.062-104.407,29.249C5.522,334.683,5.505,401.019,44.351,441.802     c20.09,21.091,47.14,32.787,76.169,32.933c0.171,0.001,0.341,0.008,0.51,0.02l0.519-0.009c1.119-0.01,2.183-0.029,3.247-0.066     c0.038-0.001,0.077-0.002,0.115-0.003l146.11-2.939c0.362-0.034,0.733-0.042,1.102-0.021c2.711,0.147,5.116,0.219,7.353,0.219     c70.592,0,128.023-53.313,128.023-118.843c0-27.012-9.517-52.465-27.521-73.609c-2.685-3.154-2.306-7.887,0.848-10.573     c3.154-2.685,7.886-2.306,10.573,0.848c20.346,23.894,31.1,52.71,31.1,83.334c0,73.801-64.16,133.843-143.023,133.843     c-2.353,0-4.846-0.069-7.607-0.211l-146.597,2.948c-1.177,0.042-2.355,0.062-3.532,0.073l-1.135,0.019     C120.564,489.765,120.523,489.765,120.482,489.765z"/>
</g>
<g>
<g>
<path d="M301.342,362.006c-2.065,0-4.121-0.086-6.171-0.26c-17.171-1.46-32.351-9.064-42.744-21.411      c-23.917-28.414-16.538-74.201,16.448-102.068c0,0,0,0,0,0c13.005-10.987,28.337-17.907,44.336-20.012      c24.258-3.192,46.793-13.085,65.17-28.61l12.22-10.323c2.554-2.158,5.793-3.19,9.126-2.906c3.331,0.283,6.351,1.847,8.504,4.405      l27.488,32.656c4.43,5.263,3.759,13.158-1.496,17.598L421.99,241.41c-18.378,15.526-31.918,36.112-39.157,59.531      c-4.772,15.438-14.167,29.405-27.17,40.39C339.902,354.646,320.408,362.006,301.342,362.006z M278.556,249.725      c-26.679,22.539-33.252,58.853-14.652,80.951c7.809,9.278,19.365,15.004,32.538,16.124c17.043,1.448,35.093-4.722,49.542-16.927      c10.808-9.131,18.595-20.667,22.518-33.361c8.087-26.164,23.235-49.18,43.808-66.56l10.326-8.724l-24.267-28.831l-10.307,8.707      c-20.575,17.382-45.781,28.456-72.893,32.024C302.023,234.856,289.362,240.596,278.556,249.725L278.556,249.725z"/>
</g>
<g>
<path d="M427.214,219.731c-0.358,0-0.719-0.016-1.081-0.046c-3.331-0.284-6.351-1.848-8.504-4.405l-14.283-16.968      c-4.431-5.264-3.76-13.159,1.497-17.599l39.242-33.151c-2.427-9.891,0.914-20.318,8.755-26.942      c5.477-4.627,12.43-6.839,19.572-6.234c7.156,0.608,13.647,3.973,18.278,9.474c2.592,3.08,4.47,6.723,5.473,10.603      c3.648,1.647,6.917,4.117,9.509,7.197c9.543,11.337,8.108,28.331-3.2,37.883c-7.841,6.624-18.666,8.166-27.996,4.105      l-39.217,33.131C432.982,218.701,430.16,219.731,427.214,219.731z M416.43,190.561l11.062,13.143l38.605-32.614      c3.806-3.216,9.184-3.808,13.7-1.51c4.256,2.166,9.355,1.578,12.994-1.496c5-4.224,5.63-11.744,1.404-16.765      c-1.284-1.526-2.864-2.668-4.696-3.393c-3.969-1.573-6.861-5.007-7.737-9.185c-0.406-1.937-1.263-3.693-2.549-5.221      c-2.047-2.431-4.914-3.919-8.072-4.187c-3.144-0.268-6.208,0.708-8.621,2.746c-3.647,3.081-5.089,8.03-3.672,12.61      c1.495,4.836,0.004,10.034-3.796,13.244L416.43,190.561z M445.372,146.474c-0.002,0.002-0.004,0.004-0.006,0.005      L445.372,146.474C445.372,146.474,445.372,146.474,445.372,146.474z"/>
</g>
</g>
</g>
</g>
</svg>